<?xml version="1.0" standalone="no"?>
<!DOCTYPE svg PUBLIC "-//W3C//DTD SVG 20010904//EN"
 "http://www.w3.org/TR/2001/REC-SVG-20010904/DTD/svg10.dtd">
<svg version="1.0" xmlns="http://www.w3.org/2000/svg"
 width="574.000000pt" height="574.000000pt" viewBox="0 0 574.000000 574.000000"
 preserveAspectRatio="xMidYMid meet">
<metadata>
Created by potrace 1.14, written by Peter Selinger 2001-2017
</metadata>
<g transform="translate(0.000000,574.000000) scale(0.100000,-0.100000)"
fill="#000000" stroke="none">
<path d="M2715 5123 c-28 -7 -59 -15 -70 -17 -77 -16 -219 -63 -265 -89 -272
-151 -241 -125 -356 -294 -106 -158 -103 -150 -176 -393 -11 -36 -23 -75 -29
-88 -5 -12 -12 -73 -15 -135 -10 -194 -11 -206 -24 -221 -18 -23 -51 -186 -46
-231 3 -22 8 -67 12 -100 8 -75 9 -80 27 -135 8 -25 32 -101 53 -170 l38 -125
66 -62 c37 -34 67 -68 67 -75 1 -25 11 -64 25 -98 8 -19 16 -39 18 -45 1 -5 4
-14 6 -20 69 -199 71 -207 80 -340 6 -84 5 -92 -12 -98 -11 -3 -41 -14 -69
-25 -27 -11 -88 -34 -135 -51 -47 -17 -94 -35 -105 -40 -11 -5 -51 -21 -90
-36 -65 -25 -226 -94 -355 -152 -30 -14 -91 -41 -135 -61 -71 -31 -140 -76
-216 -142 -20 -16 -218 -174 -254 -202 -62 -48 -106 -99 -123 -148 -18 -49
-165 -423 -187 -475 -4 -11 -10 -28 -12 -39 -2 -10 -21 -107 -43 -215 -43
-217 -46 -233 -55 -341 -3 -41 -8 -96 -11 -122 -6 -71 -12 -134 -19 -218 -4
-41 -9 -82 -10 -91 -3 -12 5 -18 28 -20 18 -2 1177 -4 2577 -4 l2545 0 1 395
c0 217 -3 412 -8 432 -4 21 -10 55 -12 75 -3 21 -11 76 -20 123 -8 47 -17 103
-21 125 -3 23 -8 52 -10 65 -3 14 -8 45 -11 70 -3 25 -8 54 -10 65 -3 11 -7
36 -10 55 -6 44 -43 119 -141 290 l-78 134 -228 156 c-213 145 -236 158 -350
198 -67 24 -151 54 -187 67 -36 13 -155 56 -265 95 -110 40 -240 87 -290 105
-92 34 -344 140 -353 150 -3 3 4 15 15 28 11 12 48 66 82 121 61 97 63 101 87
235 14 75 27 152 30 171 3 19 9 53 14 75 4 22 8 47 7 55 -1 44 27 275 34 275
1 0 3 14 4 30 1 17 5 73 10 125 4 52 7 100 8 105 0 12 -13 173 -19 233 -2 23
-6 100 -9 171 -4 123 -6 136 -61 307 -31 99 -59 187 -61 196 -3 10 -63 66
-133 125 -108 91 -151 119 -265 176 -150 75 -140 72 -245 81 -41 4 -100 10
-130 14 -37 6 -73 4 -105 -5z"/>
</g>
</svg>
